<svg xmlns="http://www.w3.org/2000/svg" xmlns:xlink="http://www.w3.org/1999/xlink" width="1114" height="179" viewBox="0 0 1114 179"><defs><path id="a" d="M86.9876834,15.7005357 C89.8938487,12.7943705 93.0508602,10.2917028 96.3890804,8.19254255 C96.8971876,7.8738789 97.4092497,7.56382634 97.9252521,7.26311211 C98.9225444,6.68130893 99.931623,6.1366322 100.95361,5.62663865 C101.499498,5.35464732 102.048577,5.09229974 102.601058,4.83983007 C102.994074,4.66000114 103.388729,4.4854874 103.785012,4.31596993 C104.744557,3.90551668 105.713519,3.52426759 106.690646,3.17230614 C106.941809,3.08213052 107.193007,2.99380689 107.444721,2.90741033 C126.019345,-3.47109454 147.395551,0.64608536 162.346792,15.2546409 L162.797884,15.7005357 L234.084958,86.98761 C254.808065,107.710717 255.014352,141.188718 234.700249,162.172361 L234.07839,162.804379 L233.446237,163.426375 C212.668135,183.541707 179.654868,183.538137 158.887171,163.426545 L158.261621,162.810947 L124.893463,129.442235 L91.5239466,162.810947 C70.8008399,183.534054 37.3228388,183.740341 16.3391952,163.426239 L15.7071777,162.804379 C-5.02603609,142.071165 -5.23173846,108.599513 15.0788567,87.6195179 L15.7006091,86.98761 L86.9876834,15.7005357 Z"/></defs><g fill="none" fill-rule="evenodd"><path fill="#374040" d="M382.055389,100.646817 L382.055389,144.575189 L359.382812,144.575189 L359.382812,34.0083056 L393.474424,34.0083056 C420.780812,34.0083056 435.509713,46.1093288 435.509713,68.8194684 C435.509713,86.2250498 426.407583,97.8287707 409.361777,102.138724 L439.812537,144.575189 L412.340656,144.575189 L382.055389,100.646817 Z M382.055389,87.3854219 L392.315971,87.3854219 C405.224446,87.3854219 412.506149,81.0862591 412.506149,69.9798405 C412.506149,59.3707242 405.555432,52.7400265 394.30189,52.7400265 L382.055389,52.7400265 L382.055389,87.3854219 Z M529.013405,111.255933 L469.104845,111.255933 C470.92527,121.86505 478.703454,128.495747 489.129529,128.495747 C496.907713,128.495747 503.527443,124.683096 506.837308,118.549701 L526.20002,123.854259 C518.58733,138.773329 505.182376,147.227468 488.964036,147.227468 C464.636527,147.227468 447.259734,129.987654 447.259734,106.117143 C447.259734,82.0808637 463.974554,65.1725846 487.64009,65.1725846 C512.133093,65.1725846 529.178899,82.4123986 529.178899,107.111747 L529.013405,111.255933 Z M469.104845,99.1549102 L507.499281,99.1549102 C505.678855,89.0430963 498.397152,82.9097009 487.971076,82.9097009 C477.875987,82.9097009 471.090764,88.7115614 469.104845,99.1549102 Z M596.534656,122.030817 C591.073378,126.838073 587.10154,128.495747 581.640262,128.495747 C569.393761,128.495747 560.622618,119.047003 560.622618,105.951375 C560.622618,93.3530498 569.228268,83.9043056 580.812796,83.9043056 C586.936047,83.9043056 591.900845,86.0592823 596.534656,90.7007707 L610.601583,77.9366777 C600.837481,69.1510033 591.404365,65.1725846 579.98533,65.1725846 C556.1543,65.1725846 539.273987,82.4123986 539.273987,106.614445 C539.273987,129.987654 556.485287,147.227468 579.819837,147.227468 C591.404365,147.227468 600.506494,143.746352 609.277637,135.789515 L596.534656,122.030817 Z M656.277723,65.1725846 C680.439739,65.1725846 697.816532,82.7439335 697.816532,106.94598 C697.816532,129.490352 679.44678,147.227468 655.946737,147.227468 C631.784721,147.227468 614.407928,130.153422 614.407928,106.28291 C614.407928,81.9150963 631.453734,65.1725846 656.277723,65.1725846 Z M656.277723,84.070073 C643.865729,84.070073 635.591066,92.8557474 635.591066,106.28291 C635.591066,119.544306 643.865729,128.495747 656.11223,128.495747 C668.193238,128.495747 676.633394,119.378538 676.633394,106.614445 C676.633394,92.68998 668.855211,84.070073 656.277723,84.070073 Z M713.372899,67.8248637 L713.372899,144.575189 L734.390543,144.575189 L734.390543,98.9891428 C734.390543,88.3800265 738.527874,82.9097009 746.471551,82.9097009 C754.084241,82.9097009 758.056079,88.3800265 758.056079,98.9891428 L758.056079,144.575189 L779.073723,144.575189 L779.073723,98.326073 C779.073723,88.5457939 783.542041,82.9097009 791.320225,82.9097009 C799.263901,82.9097009 803.070246,87.8827242 803.070246,98.326073 L803.070246,144.575189 L824.08789,144.575189 L824.08789,94.3476544 C824.08789,82.7439335 822.598451,77.4393753 817.96464,72.3005846 C813.661815,67.6590963 807.207578,65.1725846 799.429394,65.1725846 C788.506839,65.1725846 781.390629,69.1510033 776.260338,77.9366777 C772.619486,69.6483056 765.337783,65.1725846 755.408187,65.1725846 C745.644085,65.1725846 739.189847,68.9852358 734.390543,77.4393753 L734.390543,67.8248637 L713.372899,67.8248637 Z M865.461206,134.629143 L865.461206,144.575189 L844.443562,144.575189 L844.443562,34.0083056 L865.461206,34.0083056 L865.461206,77.1078405 C872.742909,68.6537009 879.85912,65.1725846 890.285195,65.1725846 C912.792279,65.1725846 928.845125,82.4123986 928.845125,106.614445 C928.845125,130.650724 913.619745,147.227468 891.278155,147.227468 C879.693626,147.227468 872.24643,143.580585 865.461206,134.629143 Z M886.147863,82.9097009 C874.397842,82.9097009 865.130219,93.5188172 865.130219,106.780213 C865.130219,120.53891 873.570376,130.153422 885.651384,130.153422 C897.897885,130.153422 906.503535,120.53891 906.503535,106.780213 C906.503535,93.1872823 897.732392,82.9097009 886.147863,82.9097009 Z M1021.52135,111.255933 L961.612791,111.255933 C963.433217,121.86505 971.2114,128.495747 981.637475,128.495747 C989.415659,128.495747 996.035389,124.683096 999.345254,118.549701 L1018.70797,123.854259 C1011.09528,138.773329 997.690322,147.227468 981.471982,147.227468 C957.144473,147.227468 939.76768,129.987654 939.76768,106.117143 C939.76768,82.0808637 956.4825,65.1725846 980.148036,65.1725846 C1004.64104,65.1725846 1021.68684,82.4123986 1021.68684,107.111747 L1021.52135,111.255933 Z M961.612791,99.1549102 L1000.00723,99.1549102 C998.186801,89.0430963 990.905098,82.9097009 980.479023,82.9097009 C970.383934,82.9097009 963.59871,88.7115614 961.612791,99.1549102 Z M1113.5356,111.255933 L1053.62704,111.255933 C1055.44747,121.86505 1063.22565,128.495747 1073.65173,128.495747 C1081.42991,128.495747 1088.04964,124.683096 1091.35951,118.549701 L1110.72222,123.854259 C1103.10953,138.773329 1089.70458,147.227468 1073.48624,147.227468 C1049.15873,147.227468 1031.78193,129.987654 1031.78193,106.117143 C1031.78193,82.0808637 1048.49675,65.1725846 1072.16229,65.1725846 C1096.65529,65.1725846 1113.7011,82.4123986 1113.7011,107.111747 L1113.5356,111.255933 Z M1053.62704,99.1549102 L1092.02148,99.1549102 C1090.20105,89.0430963 1082.91935,82.9097009 1072.49328,82.9097009 C1062.39819,82.9097009 1055.61296,88.7115614 1053.62704,99.1549102 Z"/><mask id="b" fill="#fff"><use xlink:href="#a"/></mask><use xlink:href="#a" fill="#0FA5A5" fill-opacity="0"/><polygon fill="#FFC021" points="124.893 53.619 124.893 129.442 53.619 200.716 -22.204 124.893 87.854 13.854" mask="url(#b)"/><polygon fill="#0FA5A5" points="277.286 126.643 191.72 202.647 124.893 129.442 124.243 56.868 161.854 13.854" mask="url(#b)"/><path fill="#3BC4A1" d="M124.893061,129.441833 L86.9811149,91.5304417 C66.0430784,70.5924052 66.0430784,36.6451407 86.9811149,15.7071043 C107.919151,-5.23093222 141.866416,-5.23093222 162.804452,15.7071043 C183.742489,36.6451407 183.742489,70.5924052 162.804452,91.5304417 L124.893061,129.441833 Z" mask="url(#b)"/></g></svg>