<svg xmlns="http://www.w3.org/2000/svg" xmlns:xlink="http://www.w3.org/1999/xlink" width="742" height="531" viewBox="0 0 742 531"><defs><path id="a" d="M694.733826,483.19278 C632.589734,545.336873 531.834253,545.336873 469.69016,483.19278 L370.671669,384.173152 L271.651735,483.19278 C210.129083,544.715432 110.76341,545.330658 48.4838982,485.03846 L46.6080692,483.19278 C-15.5360231,421.048688 -15.5360231,320.293207 46.6080692,258.149115 L258.149115,46.6080692 C320.293207,-15.5360231 421.048688,-15.5360231 483.19278,46.6080692 L694.733826,258.149115 C756.877918,320.293207 756.877918,421.048688 694.733826,483.19278 Z"/></defs><g fill="none" fill-rule="evenodd" transform="translate(.443 .443)"><mask id="b" fill="#fff"><use xlink:href="#a"/></mask><use xlink:href="#a" fill="#FFF" fill-opacity="0"/><polygon fill="#FFC021" points="370.671 159.13 370.671 384.174 159.13 595.715 -65.914 370.671 258.668 45.597" mask="url(#b)"/><polygon fill="#0FA5A5" points="857.193 403.213 574.527 607.718 370.671 384.174 480.304 42.385" mask="url(#b)"/><path fill="#3BC4A1" d="M370.671516,384.172999 L258.149115,271.651735 C196.005023,209.507642 196.005023,108.752161 258.149115,46.6080692 C320.293207,-15.5360231 421.048688,-15.5360231 483.19278,46.6080692 C545.336873,108.752161 545.336873,209.507642 483.19278,271.651735 L370.671516,384.172999 Z" mask="url(#b)"/></g></svg>